<svg xmlns="http://www.w3.org/2000/svg" viewBox="0 0 713.85 163.25"><g id="레이어_2" data-name="레이어 2"><g id="레이어_1-2" data-name="레이어 1"><path d="M116.57,79.14h33.37v64c-17.36,13.08-41.26,20.07-63.81,20.07C36.53,163.25,0,129.2,0,81.62S36.53,0,86.81,0c27.73,0,50.73,9.47,66.07,27.28L129.43,48.93c-11.5-12.18-24.81-17.81-40.82-17.81C58,31.12,37,51.63,37,81.62c0,29.54,21,50.51,51.18,50.51,9.92,0,19.17-1.8,28.41-6.76Z"/><path d="M259.52,104.62v55.92H223V104.17L161.89,2.71h38.78l42.17,70.12L285,2.71h35.85Z"/><path d="M332.57,91.09V2.71H369.1v87c0,30,13.08,42.39,35.18,42.39,22.32,0,35.17-12.4,35.17-42.39v-87h36.08V91.09c0,46.45-26.61,72.16-71.48,72.16S332.57,137.54,332.57,91.09Z"/><path d="M612.16,160.54l-30.44-44H548.13v44H511.6V2.71h68.32c42.16,0,68.55,21.87,68.55,57.27,0,23.67-12,41-32.47,49.83l35.4,50.73ZM577.89,32.47H548.13v55h29.76c22.32,0,33.6-10.38,33.6-27.51C611.49,42.62,600.21,32.47,577.89,32.47Z"/><path d="M677.32,2.71h36.53V160.54H677.32Z"/></g></g></svg>